<?xml version="1.0" encoding="UTF-8" standalone="no"?><!DOCTYPE svg PUBLIC "-//W3C//DTD SVG 1.1//EN" "http://www.w3.org/Graphics/SVG/1.1/DTD/svg11.dtd"><svg width="100%" height="100%" viewBox="0 0 2123 584" version="1.1" xmlns="http://www.w3.org/2000/svg" xmlns:xlink="http://www.w3.org/1999/xlink" xml:space="preserve" xmlns:serif="http://www.serif.com/" style="fill-rule:evenodd;clip-rule:evenodd;stroke-linejoin:round;stroke-miterlimit:2;"><path d="M1170.077,507.701l-0.307,25.463l-0.076,1.123l-0.09,1.197l-0.097,1.084l-0.101,1.185l-0.121,1.201l-0.214,1.988l-0.183,1.551l-0.187,1.528l-0.273,1.941l-0.195,1.345l-0.341,2.28l-0.453,2.577l-0.468,2.612l-0.68,3.344l-0.761,3.362l-0.713,2.875l-0.668,2.354l-0.525,1.789l-0.632,1.964l-102.479,0.008l0,-279.068l1.517,-16.001l3.474,-22.263l3.758,-15.102l7.657,-19.923l8.083,-14.322l8.366,-11.486l10.564,-10.848l15.669,-11.84l12.762,-6.948l20.703,-8.437l11.131,-3.403l12.833,-2.836l13.046,-2.198l16.236,-1.843l17.087,-0.993l13.967,-0.213l4.154,0.065l4.154,-0.065l13.967,0.213l17.087,0.993l16.236,1.843l13.046,2.198l12.833,2.836l11.131,3.403l20.703,8.437l12.762,6.948l15.669,11.84l10.564,10.848l8.366,11.486l8.083,14.322l7.657,19.923l3.758,15.102l3.474,22.263l1.517,16.001l0,279.068l-102.479,-0.008l-0.632,-1.964l-0.525,-1.789l-0.668,-2.354l-0.713,-2.875l-0.761,-3.362l-0.68,-3.344l-0.468,-2.612l-0.453,-2.577l-0.341,-2.28l-0.195,-1.345l-0.273,-1.941l-0.187,-1.528l-0.183,-1.551l-0.214,-1.988l-0.121,-1.201l-0.101,-1.185l-0.097,-1.084l-0.09,-1.197l-0.076,-1.123l-0.307,-25.463l-142.887,0Zm142.049,-69.482l-0.418,-34.654l0.203,-11.123l0.232,-10.31l0.174,-7.957l0.145,-7.812l-2.643,-94.673l-0.087,-3.717l-0.871,-5.924l-1.278,-4.24l-2.265,-4.676l-1.83,-2.875l-2.323,-2.991l-2.439,-2.468l-2.701,-2.352l-2.672,-2.004l-3.311,-2.062l-3.02,-1.655l-3.717,-1.684l-4.008,-1.597l-4.182,-1.394l-7.87,-1.946l-7.493,-1.336l-7.899,-0.813l-8.654,-0.436l-1.68,-0.021l-1.68,0.021l-8.654,0.436l-7.899,0.813l-7.493,1.336l-7.87,1.946l-4.182,1.394l-4.008,1.597l-3.717,1.684l-3.02,1.655l-3.311,2.062l-2.672,2.004l-2.701,2.352l-2.439,2.468l-2.323,2.991l-1.83,2.875l-2.265,4.676l-1.278,4.24l-0.871,5.924l-0.087,3.717l-2.643,94.673l0.145,7.812l0.174,7.957l0.232,10.31l0.203,11.123l-0.418,34.654l141.211,0Zm638.589,-282.833l0,279.068l-1.517,16.001l-3.474,22.263l-3.758,15.102l-7.657,19.923l-8.083,14.322l-8.366,11.486l-10.564,10.848l-15.669,11.84l-12.762,6.948l-20.703,8.437l-11.131,3.403l-12.833,2.836l-13.046,2.198l-16.236,1.843l-17.087,0.993l-13.967,0.213l-4.154,-0.065l-4.154,0.065l-13.967,-0.213l-17.087,-0.993l-16.236,-1.843l-13.046,-2.198l-12.833,-2.836l-11.131,-3.403l-20.703,-8.437l-12.762,-6.948l-15.669,-11.84l-10.564,-10.848l-8.366,-11.486l-8.083,-14.322l-7.657,-19.923l-3.758,-15.102l-3.474,-22.263l-1.517,-16.001l0,-279.068l102.479,0.008l0.632,1.964l0.525,1.789l0.668,2.354l0.713,2.875l0.761,3.362l0.68,3.344l0.468,2.612l0.453,2.577l0.341,2.28l0.195,1.345l0.273,1.941l0.187,1.528l0.183,1.551l0.214,1.988l0.121,1.201l0.101,1.185l0.097,1.084l0.09,1.197l0.076,1.123l1.564,129.598l-0.203,11.123l-0.232,10.31l-0.174,7.957l-0.145,7.812l2.643,94.673l0.087,3.717l0.871,5.924l1.278,4.24l2.265,4.676l1.83,2.875l2.323,2.991l2.439,2.468l2.701,2.352l2.672,2.004l3.311,2.062l3.02,1.655l3.717,1.684l4.008,1.597l4.182,1.394l7.87,1.946l7.493,1.336l7.899,0.813l8.654,0.436l1.68,0.021l1.68,-0.021l8.654,-0.436l7.899,-0.813l7.493,-1.336l7.87,-1.946l4.182,-1.394l4.008,-1.597l3.717,-1.684l3.02,-1.655l3.311,-2.062l2.672,-2.004l2.701,-2.352l2.439,-2.468l2.323,-2.991l1.83,-2.875l2.265,-4.676l1.278,-4.24l0.871,-5.924l0.087,-3.717l2.643,-94.673l-0.145,-7.812l-0.174,-7.957l-0.232,-10.31l-0.203,-11.123l1.564,-129.598l0.076,-1.123l0.09,-1.197l0.097,-1.084l0.101,-1.185l0.121,-1.201l0.214,-1.988l0.183,-1.551l0.187,-1.528l0.273,-1.941l0.195,-1.345l0.341,-2.28l0.453,-2.577l0.468,-2.612l0.68,-3.344l0.761,-3.362l0.713,-2.875l0.668,-2.354l0.525,-1.789l0.632,-1.964l102.479,-0.008Zm-1697.478,413.764l-253.238,0l0,-562.374l276.952,0c110.103,0 169.39,59.286 169.39,153.298c0,48.276 -29.643,88.93 -68.603,105.022c47.429,17.786 85.542,55.899 85.542,136.359c0,102.481 -68.603,167.696 -210.043,167.696Zm-139.747,-95.705l149.063,0c54.205,0 86.389,-34.725 86.389,-80.46c0,-49.123 -32.184,-71.144 -84.695,-71.144l-150.757,0l0,151.604Zm141.44,-369.27l-141.44,0l0,121.961l148.216,0c46.582,0 71.144,-21.174 71.144,-60.98c0,-43.194 -22.868,-60.98 -77.919,-60.98Zm621.661,285.422l-287.116,0c3.388,62.674 38.96,103.328 93.164,103.328c35.572,0 66.909,-17.786 74.532,-46.582l113.491,0c-25.408,85.542 -94.011,133.818 -182.941,133.818c-138.9,0 -208.349,-76.225 -208.349,-226.982c0,-128.736 73.685,-211.737 201.574,-211.737c127.889,0 195.645,83.001 195.645,248.156Zm-283.728,-69.45l170.237,0c-1.694,-61.827 -42.347,-91.471 -85.542,-91.471c-44.041,0 -80.46,33.878 -84.695,91.471Zm431.944,249.003l-110.103,0l0,-569.15l110.103,0l0,569.15Zm1098.143,4.269l-110.103,0l0,-416.699l110.103,0l0,416.699Zm0,-466.669l-110.103,0l0,-102.481l110.103,0l0,102.481Z" style="fill:#fff;"/></svg>